<svg xmlns="http://www.w3.org/2000/svg" width="1024" height="512" viewBox="-2.5 -5.0 18.653386454183266 10.0">
  <style>@media (prefers-color-scheme: dark){ .text { fill:#f4f4f4 !important; } } @media (prefers-color-scheme: light){ .text { fill:#141414 !important; } }</style>
  <g stroke-width="0.2" stroke-linejoin="round" stroke-linecap="round">
    <path class="f1" d="M2.0,-4.5 L-2.0,0.5 L-2.0,-1.5 L2.0,-4.5z" style="fill:#788bff; stroke:#788bff"/>
    <path class="f2" d="M0.0,-0.5 L2.0,1.5 L2.0,-0.5 L0.0,-0.5z" style="fill:#f9b208; stroke:#f9b208"/>
    <path class="l1" d="M0.4,-0.5 L2.0,-4.5 L-2.0,-1.5 L-2.0,0.5 L-0.4,0.5" style="fill:none; stroke:#788bff"/>
    <path class="l2" d="M0.0,-0.5 L-2.0,4.5 L2.0,1.5 L2.0,-0.5 L0.0,-0.5z" style="fill:none; stroke:#f9b208"/>
  </g>
  <path class="text" d="M 5.025896414342629 2.450199203187251 L 4.013383964143427 2.450199203187251 L 4.013383964143427 -2.407868525896414 L 6.795380976095617 -2.407868525896414 L 6.795380976095617 -1.5637450199203187 L 5.025896414342629 -1.5637450199203187 L 5.025896414342629 -0.31281125498007967 L 6.672746513944223 -0.31281125498007967 L 6.672746513944223 0.5278884462151394 L 5.025896414342629 0.5278884462151394 Z M 10.603585657370518 -1.3380851593625498 C 10.603585657370518 -1.0349228087649402 10.511609810756973 -0.7770480577689243 10.32781374501992 -0.5646165338645418 C 10.144173306772908 -0.3521071962151394 9.886298555776893 -0.206050796812749 9.554345119521912 -0.1263695219123506 L 9.554345119521912 -0.106449203187251 C 9.94605951195219 -0.05765998505976096 10.242607694223107 0.06155067231075697 10.443911852589641 0.2511827689243028 C 10.645371638446214 0.44065923804780877 10.74614043824701 0.6959661354581673 10.74614043824701 1.0171812749003983 C 10.74614043824701 1.4849196962151394 10.576817729083665 1.8490102091633467 10.238172310756973 2.109375 C 9.899682519920319 2.3698176045816735 9.416147908366533 2.5 8.787412848605577 2.5 C 8.260769422310757 2.5 7.793731324701195 2.4124595368525896 7.386454183266933 2.237300796812749 L 7.386454183266933 1.3629855577689243 C 7.5746078187251 1.4582295816733069 7.781592380478088 1.5358876992031871 8.007407868525895 1.595804282868526 C 8.233145542828685 1.6557986802788844 8.456626618525895 1.6857569721115537 8.67785109561753 1.6857569721115537 C 9.016496513944222 1.6857569721115537 9.266589890438247 1.6281748007968126 9.428286852589641 1.5130104581673307 C 9.589906000996017 1.3976904880478087 9.670754482071713 1.2124937749003983 9.670754482071713 0.9574203187250996 C 9.670754482071713 0.7289591633466135 9.577767056772908 0.5671065737051793 9.391870019920319 0.4718625498007968 C 9.205895169322709 0.3764628984063745 8.909269173306772 0.3286852589641434 8.50199203187251 0.3286852589641434 L 8.133466135458168 0.3286852589641434 L 8.133466135458168 -0.4587898406374502 L 8.508528386454184 -0.4587898406374502 C 8.884913471115539 -0.4587898406374502 9.159985059760956 -0.5079681274900398 9.333665338645417 -0.6063247011952191 C 9.50734561752988 -0.7048369023904383 9.594185756972111 -0.8735371015936255 9.594185756972111 -1.112425298804781 C 9.594185756972111 -1.4797061752988048 9.364012699203187 -1.6633466135458168 8.90382221115538 -1.6633466135458168 C 8.744459661354583 -1.6633466135458168 8.582295816733069 -1.636734312749004 8.417330677290837 -1.5836653386454183 C 8.252365537848606 -1.5305185507968126 8.069191982071713 -1.4386983316733069 7.867965637450199 -1.3082046812749004 L 7.392990537848606 -2.0156872509960158 C 7.835750747011952 -2.3345679780876494 8.36363919322709 -2.494086155378486 8.976655876494025 -2.494086155378486 C 9.479177041832669 -2.494086155378486 9.875949327689243 -2.3921501494023905 10.166894920318725 -2.188433764940239 C 10.457996140438247 -1.9846395667330676 10.603585657370518 -1.701164093625498 10.603585657370518 -1.3380851593625498 Z M 15.64996264940239 -0.03672808764940239 C 15.64996264940239 0.7634306523904383 15.422513072709163 1.3762917081673307 14.96769173306773 1.801855079681275 C 14.512792579681275 2.227496264940239 13.856044571713147 2.4402390438247012 12.997447709163346 2.4402390438247012 L 11.622945717131474 2.4402390438247012 L 11.622945717131474 -2.4203187250996017 L 13.146850099601593 -2.4203187250996017 C 13.939071837649402 -2.4203187250996017 14.554345119521912 -2.210844123505976 14.992592131474103 -1.791894920318725 C 15.430839143426295 -1.372945717131474 15.64996264940239 -0.7878641683266933 15.64996264940239 -0.03672808764940239 Z M 14.580801792828685 -0.0099601593625498 C 14.580801792828685 -1.0540649900398407 14.120455677290837 -1.576195219123506 13.199763446215139 -1.576195219123506 L 12.6519546812749 -1.576195219123506 L 12.6519546812749 1.5895791832669321 L 13.093625498007968 1.5895791832669321 C 14.085050423306773 1.5895791832669321 14.580801792828685 1.0563994023904382 14.580801792828685 -0.0099601593625498 Z" fill="#adadad"/>
</svg>